<?xml version="1.0" encoding="utf-8"?>
<!-- Generator: Adobe Illustrator 22.0.1, SVG Export Plug-In . SVG Version: 6.00 Build 0)  -->
<svg version="1.1" id="Layer_1" xmlns="http://www.w3.org/2000/svg" xmlns:xlink="http://www.w3.org/1999/xlink" x="0px" y="0px"
	 viewBox="0 0 24 24" style="enable-background:new 0 0 24 24;" xml:space="preserve">
<style type="text/css">
	.st0{fill:#BDF478;}
</style>
<title>pmt_geoicon</title>
<g>
	<path class="st0" d="M12.7,5.5c0.3,0.4,0.6,0.7,1,0.9c0.2,0.1,0.3,0.1,0.5,0.2c0.1,0,0.3,0,0.4,0C15,6.5,15.3,6.3,15.5,6
		c-0.4-0.5-0.8-0.9-1.3-1.2c-0.8-0.7-1.8-1.1-2.8-1.4l-0.3,0l0.3-0.1c0.7,0,1.4,0.1,2,0.5c0.8,0.4,1.5,1,2.1,1.6
		c0,0,0.1,0.1,0.1,0.1c0.1-0.1,0.1-0.3,0.1-0.4c0.1-0.7-0.2-1.4-0.8-1.7c-1.1-0.7-2.5-1-3.8-0.8c-0.6,0.1-1.2,0.2-1.8,0.4
		c-0.1,0-0.2,0.1-0.3,0.1S9,3.3,8.9,3.3c0.6,0.1,1.3,0.3,1.9,0.6C11.6,4.3,12.2,4.8,12.7,5.5z"/>
	<path class="st0" d="M17,11.5c0.3-1.8-0.2-3.6-1.2-5l-0.1-0.1c-0.3,0.2-0.7,0.4-1.1,0.4c-0.1,0-0.2,0-0.3,0c-0.7,0-1.4-0.4-1.9-1
		c-0.5-0.7-1.2-1.3-1.9-1.7c-0.6-0.3-1.3-0.5-2-0.6c-3.4,2-4.5,6.4-2.4,9.7c0.2,0.3,0.4,0.6,0.6,0.8c0.1,0.1,0.1,0.2,0.2,0.2
		c-0.5-0.9-0.7-1.9-0.6-3c0.1-0.9,0.5-1.7,1.1-2.3c0.6-0.6,1.4-1,2.2-1.1c0.9-0.1,1.9,0.1,2.7,0.6c0.7,0.5,1.2,1.2,1.4,2
		c0.2,0.9-0.1,1.7-0.6,2.4c-0.6,0.6-1.5,0.9-2.4,0.8c-0.9-0.1-1.6-0.8-1.8-1.7c-0.2-0.8,0.2-1.6,1-1.9c0.3-0.1,0.5-0.1,0.8,0
		l0.2,0.1l-0.2,0c-0.8,0.1-1.3,0.7-1.3,1.5c0,0.7,0.5,1.4,1.2,1.6c0.7,0.2,1.5-0.1,1.9-0.6c0.5-0.5,0.7-1.2,0.7-2
		c-0.1-0.8-0.5-1.5-1.1-2c-1.3-0.8-2.9-0.6-4,0.5c-1.1,1.1-1.4,2.8-0.9,4.3c0.2,0.7,0.7,1.4,1.2,1.9c0.3,0.2,0.6,0.4,0.9,0.6
		c0.3,0.1,0.5,0.2,0.8,0.3c0.5,0.1,1.1,0.2,1.6,0.2c1,0,2-0.4,2.9-1c0.6-0.4,1.2-1,1.6-1.6C16.6,13.2,16.9,12.4,17,11.5z"/>
	<path class="st0" d="M12,0C6.7,0,2.4,4.3,2.4,9.6C2.4,14.9,12,24,12,24s9.6-9.1,9.6-14.4C21.6,4.3,17.3,0,12,0C12,0,12,0,12,0z
		 M17.4,14.7c-1,1.1-2.4,1.8-3.9,2.1c-0.5,0.1-0.9,0.1-1.4,0.1c-0.2,0-0.4,0-0.6,0c-1.1,0-2.1-0.3-3-0.8c-1.2-0.6-2.3-1.6-3-2.8
		C3.5,9.9,4.5,5.4,8,3.3c0.6-0.4,1.2-0.6,1.9-0.8c3.1-0.8,6.4,0.3,8.2,2.9c0.9,1.2,1.4,2.7,1.4,4.3c0,0.4,0,0.8-0.1,1.1
		C19.2,12.2,18.5,13.6,17.4,14.7z"/>
	<path class="st0" d="M17,4.6c-0.2-0.2-0.4-0.4-0.7-0.6c0.2,0.4,0.2,0.9,0.1,1.3c-0.1,0.2-0.2,0.5-0.3,0.7c0.4,0.5,0.8,1.1,1,1.8
		c0.8,1.8,0.7,3.9-0.1,5.7c-0.4,0.7-0.9,1.4-1.5,1.9c2.1-1.3,3.3-3.6,3.3-6c0-0.4,0-0.7-0.1-1.1C18.6,7,17.9,5.7,17,4.6z"/>
</g>
</svg>
