<svg xmlns="http://www.w3.org/2000/svg" width="24" height="24" viewBox="0 0 24 24">
  <title>pmt_geoicon</title>
  <g>
    <path d="M12.692,5.51a3.179,3.179,0,0,0,1.009.873,1.763,1.763,0,0,0,.5.175,1.319,1.319,0,0,0,.428.008,1.358,1.358,0,0,0,.847-.544,8.289,8.289,0,0,0-1.252-1.239,6.686,6.686,0,0,0-2.776-1.359l-.285-.046.284-.052a3.662,3.662,0,0,1,2.013.508,7.524,7.524,0,0,1,2.124,1.62c.045.046.089.093.132.14a1.716,1.716,0,0,0,.112-.44,1.708,1.708,0,0,0-.75-1.748A5.563,5.563,0,0,0,11.3,2.64a7.907,7.907,0,0,0-1.75.413c-.111.045-.221.093-.329.143s-.194.094-.289.144a7.268,7.268,0,0,1,1.872.606A5.064,5.064,0,0,1,12.692,5.51Z" fill="#1daa00"/>
    <path d="M16.986,11.518a7.05,7.05,0,0,0-1.163-5.036L15.764,6.4a2.244,2.244,0,0,1-1.075.45,2.389,2.389,0,0,1-.346.025A2.277,2.277,0,0,1,12.467,5.9a5.251,5.251,0,0,0-1.934-1.7,8.671,8.671,0,0,0-1.964-.648A7.082,7.082,0,0,0,6.7,14.087c.066.08.133.159.2.236a4.715,4.715,0,0,1-.556-2.953A4.1,4.1,0,0,1,7.469,9.055,3.866,3.866,0,0,1,9.691,7.979a4.155,4.155,0,0,1,2.672.556,3.122,3.122,0,0,1,1.408,2.044,2.813,2.813,0,0,1-.624,2.412,2.648,2.648,0,0,1-2.406.769,2.153,2.153,0,0,1-1.824-1.687,1.628,1.628,0,0,1,.977-1.906,1.191,1.191,0,0,1,.807.017l.186.085-.2.009a1.442,1.442,0,0,0-1.269,1.506A1.664,1.664,0,0,0,10.573,13.4a2.034,2.034,0,0,0,1.949-.6,2.464,2.464,0,0,0,.658-1.958,2.834,2.834,0,0,0-1.1-2.036,3.186,3.186,0,0,0-4,.459,4.187,4.187,0,0,0-.92,4.278,4.454,4.454,0,0,0,1.205,1.871,4.053,4.053,0,0,0,.868.607,6.194,6.194,0,0,0,.822.293,6.751,6.751,0,0,0,1.6.239,5.5,5.5,0,0,0,2.9-.966,5.645,5.645,0,0,0,1.565-1.636A6.473,6.473,0,0,0,16.986,11.518Z" fill="#1daa00"/>
    <path d="M16.969,4.646a6.826,6.826,0,0,0-.68-.627,2.057,2.057,0,0,1,.142,1.344,1.8,1.8,0,0,1-.323.687A7.308,7.308,0,0,1,17.147,7.8a7.211,7.211,0,0,1-.086,5.73,5.834,5.834,0,0,1-1.482,1.943,7.082,7.082,0,0,0,3.3-5.98,7.437,7.437,0,0,0-.08-1.077A7.1,7.1,0,0,0,16.969,4.646Z" fill="#1daa00"/>
    <path d="M12,0A9.6,9.6,0,0,0,2.4,9.6C2.4,14.894,12,24,12,24S21.6,14.894,21.6,9.6A9.6,9.6,0,0,0,12,0Zm5.449,14.7a7.359,7.359,0,0,1-3.872,2.1,7.488,7.488,0,0,1-1.419.134c-.2,0-.4-.008-.6-.024a5.887,5.887,0,0,1-2.987-.842,7.613,7.613,0,0,1-2.986-2.75A7.3,7.3,0,0,1,9.875,2.441a7.745,7.745,0,0,1,8.238,2.9A7.38,7.38,0,0,1,19.5,9.614a7.7,7.7,0,0,1-.085,1.142A7.339,7.339,0,0,1,17.449,14.7Z" fill="#1daa00"/>
  </g>
</svg>
