<?xml version="1.0" encoding="utf-8"?>
<!-- Generator: Adobe Illustrator 22.0.1, SVG Export Plug-In . SVG Version: 6.00 Build 0)  -->
<svg version="1.1" xmlns="http://www.w3.org/2000/svg" xmlns:xlink="http://www.w3.org/1999/xlink" x="0px" y="0px"
	 viewBox="0 0 1520.2 444.7" style="enable-background:new 0 0 1520.2 444.7;" xml:space="preserve">
<style type="text/css">
	.st0{fill:#8BC53F;}
	.st1{fill:#259B24;}
	.st2{fill:#4D535B;}
	.st3{fill:#FFFFFF;}
	.st4{fill:#231F20;}
	.st5{fill:#8AC148;}
	.st6{fill:#599014;}
</style>
<g id="Layer_1">
	<g>
		<g>
			<g>
				<path class="st5" d="M319.5,36.1c34.1,17.4,34.1,61.8,17.8,81.3c-25.3,32.3-71.9,24.2-93.5-7.4C208.4,58.1,171.4,49.6,114,40
					C195.5-1.2,262.9,7.2,319.5,36.1z"/>
			</g>
			<path class="st6" d="M406.5,96.9C380.6,61,342.8,32.6,300,16.9c-44.6-16.4-93.9-18.7-138.8-6.4C118.6,22.2,79.6,47.3,51.4,81.2
				C22.6,115.8,5,159.3,1.7,203.6c-3.4,45.6,7.9,92,31.7,130.8c21.1,34.3,52.4,63.1,88.9,81.9c25.8,15.9,57,24.6,89,25.1
				c5.9,0.5,11.9,0.7,17.9,0.7c14.2,0,28.4-1.3,42.3-4c43.5-8.3,84.5-30.5,115.3-62.5c31.1-32.2,51.8-73.9,58.6-117.4
				c1.7-10.7,2.5-22.2,2.5-34C447.7,178.8,433,133.6,406.5,96.9z M203.8,18.4c43.4-5,82,2.8,111.4,22.6
				c17.4,11.7,24.3,27.8,21.8,50.9c-0.4,3.7-1.3,7.6-2.7,11.3c-0.9-1-1.9-2-2.9-3c-22-22.7-42.1-38-63.3-48.2
				c-38.9-18.7-59.4-15.3-60.3-15.1l-14.1,2.6l14.2,2.3c0.4,0.1,40.2,6.8,81.8,40.1c13.4,10.7,25.8,22.9,36.5,36
				c-5.9,7.6-14.1,13.4-24,15.1c-3.5,0.6-8.1,0.5-12.3-0.2c-4.8-0.9-9.8-2.6-14.6-5.1c-10.7-5.6-22.6-15.9-29.5-25.6
				c-13.7-19.1-33.7-35.7-56.4-46.7c-18.8-9.1-35.2-13.9-53-17.5c2-1,4-2,6-2.9c3.2-1.5,6.5-2.9,9.9-4.3
				C169.4,24.4,186.7,20.4,203.8,18.4z M122.9,45.2c21.3,4.5,41,11,57.6,19.1c21.2,10.3,40.9,27.6,57,50.2
				c13.4,18.8,34,29.4,56.4,29.4c3.4,0,6.9-0.2,10.4-0.7c12-1.7,22.8-6.3,31.5-12.9c0.4,0.5,0.8,1.1,1.1,1.6
				c29.7,42.8,42.2,96.9,34.3,148.6c-4.1,26.7-12.9,51.5-25.5,71.8c-11.7,18.8-27.7,35.4-46.1,48.2c-25.3,17.5-55.4,27.3-85.3,28.5
				c-16-0.5-31.9-2.8-47.3-7c-8.2-2.3-16.3-5.2-24.2-8.6c-9.4-4.9-18-10.9-25.5-17.8c-16.2-15-28.5-34-35.5-55.1
				c-15-45.3-4.1-95.8,27-125.8c28.9-27.8,80.6-40.4,117.3-13.5c18.2,13.3,30.2,35.6,32.2,59.6c1.9,22.3-5,42.6-19.2,57.3
				c-15.5,15.9-37.8,22.8-56.8,17.5c-19.6-5.5-33.7-25.2-33.6-46.9c0.1-20.6,13.9-42.6,36.7-43.7l10.1-0.5l-9.2-4.2
				c-0.4-0.2-10.7-4.8-24.7-0.5h0c-21.6,6.7-34.9,32.6-29.6,57.6c5.7,26.8,26.2,45.8,54.9,50.8c27.2,4.8,54.9-4.1,72.3-23.1
				c16.8-18.4,23.8-45.4,18.7-72.4c-4.6-24.8-20.4-47.7-42.2-61.2c-22.8-14.1-51.9-20.2-79.9-16.6c-25.2,3.2-48.8,14.6-66.5,32.2
				c-17.7,17.5-29.6,42.1-33.5,69.2c-4,27.6,0.8,55.9,12.9,80.8c-0.2-0.3-0.4-0.5-0.7-0.8C41.6,323.6,25.3,282.5,22,240.5
				c-3.3-42.7,7-86.5,29-123.3C68.5,88,93.6,63,122.9,45.2z M375.4,340.7c24.4-52.1,25.3-116,2.6-170.7
				c-7.6-18.2-17.8-35.5-30.5-51.6c4.4-6,7.6-12.8,9.3-20.1c2.9-12.7,1.8-25.5-2.6-36.7c5.9,5,11.6,10.3,16.9,15.9
				c28.6,30.3,47.8,69.8,54.1,111.3c1.6,10.3,2.4,21,2.4,31.8c-0.1,42.5-13.6,85-38,119.9c-13.3,19-29.9,35.7-48.6,49.3
				C355.1,375.6,366.9,359,375.4,340.7z"/>
		</g>
		<g>
			<g>
				<path class="st6" d="M546.3,188c19.4,0,31.6,12.1,31.6,31.2c0,19.2-12.2,31.3-31.6,31.3h-15v23.4c0,1.5-0.7,2.2-2.1,2.2h-15.5
					c-1.4,0-2.1-0.7-2.1-2.2v-83.7c0-1.5,0.7-2.2,2.1-2.2H546.3z M543.6,232.1c9.4,0,13.9-4.2,13.9-13c0-8.6-4.6-13-13.9-13h-12.3
					v25.9H543.6z"/>
			</g>
			<g>
				<path class="st6" d="M593.1,276.1c-1.5,0-2.2-0.7-2.2-2.2v-83.7c0-1.5,0.7-2.2,2.2-2.2h15.5c1.4,0,2.1,0.7,2.1,2.2v67.6h33.7
					c1.4,0,2.1,0.7,2.1,2.1v14.1c0,1.5-0.7,2.2-2.1,2.2H593.1z"/>
			</g>
			<g>
				<path class="st6" d="M656.7,276.1c-1.6,0-2.2-1-1.7-2.5l28.6-84c0.5-1.1,1.2-1.7,2.3-1.7h18.7c1.1,0,2,0.6,2.3,1.7l28.6,84
					c0.6,1.5-0.1,2.5-1.7,2.5h-16.4c-1.2,0-2.2-0.6-2.6-1.9l-4.6-15h-30l-4.7,15c-0.4,1.2-1.4,1.9-2.5,1.9H656.7z M685.5,242.1h19.9
					c-3.5-10.9-7.3-24.3-9.7-32.6h-0.5C692.6,217.8,688.8,231.3,685.5,242.1z"/>
			</g>
			<g>
				<path class="st6" d="M750,276.1c-1.5,0-2.2-0.7-2.2-2.2v-83.7c0-1.5,0.7-2.2,2.2-2.2h16.4c1.1,0,2,0.5,2.5,1.5l16.5,29.5
					c5.2,9.9,10.5,20.2,13.2,26.4l0.4-0.1c-0.9-11.1-1.4-22.7-1.4-32.9v-22.1c0-1.5,0.7-2.2,2.2-2.2h15.3c1.4,0,2.1,0.7,2.1,2.2
					v83.7c0,1.5-0.7,2.2-2.1,2.2h-16.4c-1.1,0-2-0.5-2.6-1.5l-16-26.6c-5.4-9.1-11.3-21.7-14.3-28.7l-0.4,0.1
					c1.1,11.2,2,24.3,2,35.2v19.4c0,1.5-0.7,2.2-2.1,2.2H750z"/>
			</g>
			<g>
				<path class="st6" d="M896.6,188c1.4,0,2.1,0.7,2.1,2.2v14.1c0,1.4-0.7,2.1-2.1,2.1H874v67.6c0,1.5-0.7,2.2-2.1,2.2h-15.5
					c-1.4,0-2.1-0.7-2.1-2.2v-67.6h-22.6c-1.5,0-2.2-0.7-2.2-2.1v-14.1c0-1.5,0.7-2.2,2.2-2.2H896.6z"/>
			</g>
			<g>
				<path class="st6" d="M943.2,276.1c-1.5,0-2.2-0.7-2.2-2.2v-83.7c0-1.5,0.7-2.2,2.2-2.2h17.5c1.1,0,2,0.5,2.5,1.6l11.1,21.5
					c3.8,7.4,9,19.4,11.1,24.3h0.5c2-4.9,7.3-16.9,11-24.3l11.2-21.5c0.5-1.1,1.2-1.6,2.5-1.6h17.5c1.4,0,2.1,0.7,2.1,2.2v83.7
					c0,1.5-0.7,2.2-2.1,2.2h-15.3c-1.4,0-2.2-0.7-2.2-2.2v-16.3c0-11.2,0.5-26.5,1.2-39.5l-0.5-0.1c-2.3,5.7-7.3,16.7-11.2,24.8
					l-6,12.2c-0.6,1.2-1.4,1.6-2.5,1.6h-11.8c-1.1,0-2-0.4-2.5-1.6l-6.2-12.2c-3.9-8.1-8.9-19.1-11.2-24.8l-0.5,0.1
					c0.7,13,1.2,28.2,1.2,39.5v16.3c0,1.5-0.7,2.2-2.2,2.2H943.2z"/>
			</g>
			<g>
				<path class="st6" d="M1067.8,258.3h36.6c1.4,0,2.2,0.7,2.2,2.1v13.6c0,1.5-0.9,2.2-2.2,2.2h-54.3c-1.5,0-2.2-0.7-2.2-2.2v-83.7
					c0-1.5,0.7-2.2,2.2-2.2h52.3c1.5,0,2.2,0.7,2.2,2.2v13.6c0,1.4-0.7,2.1-2.2,2.1h-34.7v16.9h30.6c1.5,0,2.2,0.7,2.2,2.1v13.3
					c0,1.4-0.7,2.1-2.2,2.1h-30.6V258.3z"/>
			</g>
			<g>
				<path class="st6" d="M1212,188c1.4,0,2.1,0.7,2.1,2.2v14.1c0,1.4-0.7,2.1-2.1,2.1h-22.6v67.6c0,1.5-0.7,2.2-2.1,2.2h-15.5
					c-1.4,0-2.1-0.7-2.1-2.2v-67.6h-22.6c-1.5,0-2.2-0.7-2.2-2.1v-14.1c0-1.5,0.7-2.2,2.2-2.2H1212z"/>
			</g>
			<g>
				<path class="st6" d="M1273.8,276.1c-1.1,0-2-0.5-2.5-1.5l-17.1-28h-7.9v27.3c0,1.5-0.7,2.2-2.2,2.2h-15.4
					c-1.5,0-2.2-0.7-2.2-2.2v-83.7c0-1.5,0.7-2.2,2.2-2.2h30c21,0,32.8,11.5,32.8,29.7c0,12.8-6.4,21.8-17.8,26l19.7,29.8
					c0.9,1.5,0.2,2.6-1.5,2.6H1273.8z M1246.3,206.2v23.2h11.7c9.1,0,13.1-3.6,13.1-11.6c0-7.9-3.9-11.6-13.1-11.6H1246.3z"/>
			</g>
			<g>
				<path class="st6" d="M1326.7,258.3h36.6c1.4,0,2.2,0.7,2.2,2.1v13.6c0,1.5-0.9,2.2-2.2,2.2H1309c-1.5,0-2.2-0.7-2.2-2.2v-83.7
					c0-1.5,0.7-2.2,2.2-2.2h52.3c1.5,0,2.2,0.7,2.2,2.2v13.6c0,1.4-0.7,2.1-2.2,2.1h-34.7v16.9h30.6c1.5,0,2.2,0.7,2.2,2.1v13.3
					c0,1.4-0.7,2.1-2.2,2.1h-30.6V258.3z"/>
			</g>
			<g>
				<path class="st6" d="M1399.5,258.3h36.6c1.4,0,2.2,0.7,2.2,2.1v13.6c0,1.5-0.9,2.2-2.2,2.2h-54.3c-1.5,0-2.2-0.7-2.2-2.2v-83.7
					c0-1.5,0.7-2.2,2.2-2.2h52.3c1.5,0,2.2,0.7,2.2,2.2v13.6c0,1.4-0.7,2.1-2.2,2.1h-34.7v16.9h30.6c1.5,0,2.2,0.7,2.2,2.1v13.3
					c0,1.4-0.7,2.1-2.2,2.1h-30.6V258.3z"/>
			</g>
			<g>
				<path class="st6" d="M1483.7,277.6c-12.6,0-22-3.7-32.4-12.1c-1.1-0.9-1.2-1.9-0.5-3l8.4-12c0.7-1,1.9-1.2,3-0.4
					c7.4,5.2,14.9,8.4,22.9,8.5c8,0,13.7-2.7,13.7-8.1c0-6.3-7.4-8.3-15.9-10c-12.5-2.6-31-8.8-31-28.7c0-17.1,14.7-25.5,33.4-25.5
					c10.9,0,19.6,2.7,29.8,9.5c1.2,0.7,1.5,1.9,0.6,3l-7.9,11.8c-0.7,1.1-1.9,1.4-3.1,0.6c-6.4-4.1-13.6-6.2-20.5-6.2
					c-8.8,0-12.2,3-12.2,7.4c0,5.4,5.2,6.9,15.7,9.4c17.1,4.2,31.3,9.9,31.3,28.1C1519.1,267.3,1505.3,277.6,1483.7,277.6z"/>
			</g>
		</g>
	</g>
</g>
<g id="Layer_2">
</g>
</svg>
