<?xml version="1.0" encoding="utf-8"?>
<!-- Generator: Adobe Illustrator 22.0.1, SVG Export Plug-In . SVG Version: 6.00 Build 0)  -->
<svg version="1.1" id="Layer_1" xmlns="http://www.w3.org/2000/svg" xmlns:xlink="http://www.w3.org/1999/xlink" x="0px" y="0px"
	 viewBox="0 0 300 300" style="enable-background:new 0 0 300 300;" xml:space="preserve">
<style type="text/css">
	.st0{fill:#8AC148;}
</style>
<g>
	<path class="st0" d="M240.5,228.2h-5.7v20.1h-5.3l-0.3-0.1v-20h-5.7v19.1c-8.6-1.2-17.7-1.8-27-1.8c-11.8,0-23.2,1-33.8,2.9
		l-1.1,0.2c-0.8-4.5-1.7-12.6-1.7-26.6v-4.5c5.2,2.8,11.2,4.5,17.5,4.5c20.2,0,36.6-16.4,36.6-36.6c0-14.9-8.9-27.6-21.6-33.4
		c-3.6-16.4-18.2-28.7-35.8-28.7c-5.6,0-10.9,1.3-15.7,3.5c0.4,2.2,0.8,4.4,1.1,6.6c4.4-2.4,9.4-3.7,14.5-3.7c7,0,13.6,2.3,19.1,6.8
		c5.3,4.3,9,10.3,10.5,16.9l0.7,3.1l2.9,1.3c10.8,4.9,17.8,15.7,17.8,27.6c0,16.7-13.6,30.3-30.3,30.3c-6.1,0-12-1.8-17.1-5.3
		l-0.4-0.3v-8.9l21.2-18.2c1.3-1.1,1.5-3.2,0.3-4.5c-0.6-0.7-1.5-1.1-2.4-1.1c-0.7,0-1.5,0.3-2.1,0.8l-17,14.6v-17.4l15.2-18.2
		c1.1-1.4,0.9-3.4-0.4-4.5c-0.6-0.5-1.3-0.7-2-0.7c-0.9,0-1.8,0.4-2.4,1.1l-10.3,12.3v-19.9c0-1.8-1.4-3.2-3.2-3.2s-3.2,1.4-3.2,3.2
		v19.9l-9.6-11.5c0,3.2-0.2,6.2-0.6,9.2l10.2,12.2v27l-17-14.6c-0.4-0.3-0.9-0.6-1.3-0.7c-1,1.7-2.2,3.3-3.4,4.9
		c0.2,0.2,0.3,0.4,0.6,0.6l20.7,17.8c-5,3.5-10.9,5.3-17.1,5.3c-8.4,0-16-3.4-21.5-9c-1.9,1.1-3.9,2.1-6,2.9
		c6.7,7.6,16.5,12.4,27.5,12.4c6.3,0,12.3-1.6,17.5-4.5v4.5c0,18.6-1.6,25.6-2.5,28.1c-10.3-1.7-21.2-2.6-32.5-2.6
		c-11.8,0-23.2,1-33.8,2.9c-1.9-4.5-4.4-14.4-4.4-34.7v-6.4v0c31.9-1.2,57.3-19.9,57.3-55.7c0-36.9-27.1-122.6-60.5-122.6
		s-60.5,85.7-60.5,122.6c0,35.7,25.4,54.5,57.3,55.7v0v6.4c0,27.3-4.6,36.4-6,38.5c-15.9,4.5-29.5,11-39.5,18.8h11.1
		c1.7-1,3.5-2.1,5.4-3.1c19.5-10.3,45.7-16,73.6-16s54,5.7,73.6,16c1.9,1,3.7,2,5.4,3.1h11.1c-10.1-8-24-14.6-40.3-19.1
		c9.1-1.3,18.6-2,28.3-2c27.9,0,54,5.7,73.6,16c1.9,1,3.7,2,5.4,3.1h11.1c-11.3-8.9-27.2-16.1-46-20.5V228.2z M77.1,72.9
		c-1.8,0-3.2,1.4-3.2,3.2v15.4v21L60.2,98.8c-0.6-0.6-1.4-0.9-2.3-0.9s-1.6,0.3-2.3,0.9c-1.2,1.2-1.2,3.3,0,4.5l18.2,18.2v24.2
		c0,0,0,0,0,0v17.8l-21.6-21.6c-0.6-0.6-1.4-0.9-2.3-0.9s-1.6,0.3-2.3,0.9c-1.2,1.2-1.2,3.3,0,4.5l26.1,26.1v17.8c0,0,0,0,0,0v12.7
		c-14.3-0.5-26.5-4.8-35.5-12.4c-10.1-8.6-15.5-21.4-15.5-36.9c0-18.7,7.1-48.6,17.2-72.7c11.5-27.3,25.3-43.5,36.9-43.5
		c11.6,0,25.4,16.3,36.9,43.5c10.1,24.1,17.2,54,17.2,72.7c0,15.5-5.4,28.2-15.5,36.9c-9,7.6-21.2,11.9-35.5,12.4v-11.4l30.9-30.9
		c1.2-1.2,1.2-3.3,0-4.5c-0.6-0.6-1.4-0.9-2.3-0.9s-1.6,0.3-2.3,0.9l-26.4,26.4v-11.4c0,0,0,0,0,0V147l21.4-21.4
		c1.2-1.2,1.2-3.3,0-4.5c-0.6-0.6-1.4-0.9-2.3-0.9c-0.8,0-1.6,0.3-2.3,0.9l-16.9,16.9v-17.8c0,0,0,0,0,0V91.5V76.1
		C80.3,74.4,78.8,72.9,77.1,72.9z"/>
	<path class="st0" d="M290.2,217.7L252.9,177h24c2.5,0,3.8-2.9,2.1-4.8l-31.6-35.1h18.2c2.4,0,3.8-2.9,2.1-4.7L234.1,94
		c-0.6-0.6-1.4-1-2.1-1s-1.6,0.3-2.1,1l-33.6,38.4c-1.6,1.8-0.3,4.7,2.1,4.7h18.2l-14.5,16.1c1.5,1.2,2.9,2.4,4.3,3.8l14.5-16.1
		c1.5-1.7,1.9-4.1,1-6.1c-0.9-2.1-3-3.4-5.2-3.4h-11.9l27.3-31.2l27.3,31.2h-11.9c-2.2,0-4.3,1.3-5.2,3.4c-0.9,2.1-0.5,4.5,1,6.1
		l27.3,30.3h-17.6c-2.3,0-4.3,1.3-5.2,3.4c-0.9,2.1-0.5,4.5,1,6.1l33,36h-78.5c-2.8,2.3-5.9,4.2-9.2,5.7h94.2
		C290.6,222.5,291.9,219.6,290.2,217.7z"/>
</g>
</svg>
