<?xml version="1.0" encoding="utf-8"?>
<!-- Generator: Adobe Illustrator 22.0.1, SVG Export Plug-In . SVG Version: 6.00 Build 0)  -->
<svg version="1.1" id="Layer_1" xmlns="http://www.w3.org/2000/svg" xmlns:xlink="http://www.w3.org/1999/xlink" x="0px" y="0px"
	 viewBox="0 0 300 300" style="enable-background:new 0 0 300 300;" xml:space="preserve">
<style type="text/css">
	.st0{fill:#8AC148;}
</style>
<g>
	<path class="st0" d="M130.7,222.3c3.4,0,6.2-2.3,6.2-2.3s11.8-14.1-17.8-17.8C121.1,218.6,126.4,222.3,130.7,222.3z M131.8,208.7
		c2.1,1.1,3.4,2.3,3.9,3.6c0.9,2.2-0.6,4.6-1.2,5.4c-0.7,0.5-2.3,1.4-3.9,1.4c-3.5,0-6.3-4.8-7.9-13.2
		C126.5,206.6,129.6,207.6,131.8,208.7z"/>
	<path class="st0" d="M173.3,238.1c6.4,0,15.2-5.2,26.2-23.9c-9.1-2.6-16.1-3.7-21.5-3.7c-22.9,0-17.2,19-17.2,19
		S165.1,238.1,173.3,238.1z M165.2,218.2c2.2-3,6.5-4.5,12.8-4.5c4.6,0,10.2,0.8,16.6,2.5c-4.1,6.5-8.2,11.4-12,14.6
		c-3.4,2.8-6.5,4.2-9.4,4.2c-5.4,0-8.8-5.4-9.5-6.6c0-0.2-0.1-0.4-0.2-0.7c1.6-1.1,3.3-2.2,5.3-3.1l6.2,4.8c0.1,0.1,0.3,0.2,0.5,0.2
		c0.2,0,0.5-0.1,0.6-0.3c0.3-0.3,0.2-0.8-0.1-1.1l-5.6-4.3c5.4-2.4,12.1-4.1,19.9-5.1c0.4-0.1,0.7-0.5,0.7-0.9
		c-0.1-0.4-0.5-0.7-0.9-0.7c-3.9,0.5-7.5,1.2-10.9,2l1-2.7c0.1-0.4-0.1-0.8-0.6-1c-0.4-0.1-0.9,0.1-1,0.6l-1.3,3.6
		c-3.2,0.9-6.1,2-8.8,3.2c-0.1,0-0.2,0.1-0.2,0.1c-1.9,0.9-3.6,1.9-5.1,2.9C163.2,223.7,163.4,220.6,165.2,218.2z"/>
	<path class="st0" d="M138.6,223.9c7.4,7,10.5,16.3,11.7,24.2c-1.7-1.2-4.1-2-7.3-1.7c-0.9,0.1-1.5,0.9-1.4,1.7
		c0.1,0.9,0.9,1.5,1.7,1.4c5.1-0.6,7,2.9,7.5,4.4c0.1,1.9,0.1,3.6,0.1,5h3.2c0-1.3,0-2.7,0-4.3c0.1-0.2,0.1-0.5,0-0.8
		c0-0.1-0.1-0.2-0.1-0.4c-0.2-3.7-0.8-8-2.1-12.6c0.3-1.5,1.8-6.7,6.3-8.5c0.8-0.3,1.2-1.2,0.9-2.1c-0.3-0.8-1.2-1.2-2.1-0.9
		c-3.5,1.4-5.6,4.2-6.8,6.6c-2-5.1-5.1-10.2-9.7-14.6c-0.6-0.6-1.6-0.6-2.2,0.1C137.9,222.3,137.9,223.3,138.6,223.9z"/>
	<path class="st0" d="M139.8,247.7c0,0-1.8-6.8-7.9-6.8c-3.8,0-9.2,2.6-17,11c7.3,3.9,12.5,5.4,16.2,5.4
		C140.6,257.3,139.8,247.7,139.8,247.7z M131.9,244.1c3.1,0,4.4,3.2,4.7,4.2c0,0.8-0.1,3-1.4,4.4c-0.9,1-2.2,1.4-4.1,1.4
		c-2,0-5.5-0.6-10.9-3.1C126.4,245,130.2,244.1,131.9,244.1z"/>
	<path class="st0" d="M107.4,274.8h6.3c2.1-1.1,4.2-2.1,6.3-3c10.1-4.3,20.8-6.4,31.9-6.4s21.8,2.2,31.9,6.4c2.2,0.9,4.3,1.9,6.3,3
		h6.3c-13-8-28.2-12.6-44.6-12.6S120.4,266.8,107.4,274.8z"/>
</g>
<g>
	<path class="st0" d="M208.1,211.2c3.4,0,6.2-2.3,6.2-2.3s11.8-14.1-17.8-17.8C198.6,207.5,203.9,211.2,208.1,211.2z M209.3,197.6
		c2.1,1.1,3.4,2.3,3.9,3.6c0.9,2.2-0.6,4.6-1.2,5.4c-0.7,0.5-2.3,1.4-3.9,1.4c-3.5,0-6.3-4.8-7.9-13.2
		C204,195.5,207.1,196.4,209.3,197.6z"/>
	<path class="st0" d="M250.8,227c6.4,0,15.2-5.2,26.2-23.9c-9.1-2.6-16.1-3.7-21.5-3.7c-22.9,0-17.2,19-17.2,19S242.6,227,250.8,227
		z M242.7,207.1c2.2-3,6.5-4.5,12.8-4.5c4.6,0,10.2,0.8,16.6,2.5c-4.1,6.5-8.2,11.4-12,14.6c-3.4,2.8-6.5,4.2-9.4,4.2
		c-5.4,0-8.8-5.4-9.5-6.6c0-0.2-0.1-0.4-0.2-0.7c1.6-1.1,3.3-2.2,5.3-3.1l6.2,4.8c0.1,0.1,0.3,0.2,0.5,0.2c0.2,0,0.5-0.1,0.6-0.3
		c0.3-0.3,0.2-0.8-0.1-1.1l-5.6-4.3c5.4-2.4,12.1-4.1,19.9-5.1c0.4-0.1,0.7-0.5,0.7-0.9c-0.1-0.4-0.5-0.7-0.9-0.7
		c-3.9,0.5-7.5,1.2-10.9,2l1-2.7c0.1-0.4-0.1-0.8-0.6-1c-0.4-0.1-0.9,0.1-1,0.6l-1.3,3.6c-3.2,0.9-6.1,2-8.8,3.2
		c-0.1,0-0.2,0.1-0.2,0.1c-1.9,0.9-3.6,1.9-5.1,2.9C240.7,212.6,240.9,209.5,242.7,207.1z"/>
	<path class="st0" d="M216,212.8c7.4,7,10.5,16.3,11.7,24.2c-1.7-1.2-4.1-2-7.3-1.7c-0.9,0.1-1.5,0.9-1.4,1.7
		c0.1,0.9,0.9,1.5,1.7,1.4c5.1-0.6,7,2.9,7.5,4.4c0.1,1.9,0.1,3.6,0.1,5h3.2c0-1.3,0-2.7,0-4.3c0.1-0.2,0.1-0.5,0-0.8
		c0-0.1-0.1-0.2-0.1-0.4c-0.2-3.7-0.8-8-2.1-12.6c0.3-1.5,1.8-6.7,6.3-8.5c0.8-0.3,1.2-1.2,0.9-2.1c-0.3-0.8-1.2-1.2-2.1-0.9
		c-3.5,1.4-5.6,4.2-6.8,6.6c-2-5.1-5.1-10.2-9.7-14.6c-0.6-0.6-1.6-0.6-2.2,0.1C215.4,211.2,215.4,212.2,216,212.8z"/>
	<path class="st0" d="M217.3,236.6c0,0-1.8-6.8-7.9-6.8c-3.8,0-9.2,2.6-17,11c7.3,3.9,12.5,5.4,16.2,5.4
		C218.1,246.1,217.3,236.6,217.3,236.6z M209.4,233c3.1,0,4.4,3.2,4.7,4.2c0,0.8-0.1,3-1.4,4.4c-0.9,1-2.2,1.4-4.1,1.4
		c-2,0-5.5-0.6-10.9-3.1C203.9,233.9,207.6,233,209.4,233z"/>
	<path class="st0" d="M184.9,263.7h6.3c2.1-1.1,4.2-2.1,6.3-3c10.1-4.3,20.8-6.4,31.9-6.4s21.8,2.2,31.9,6.4c2.2,0.9,4.3,1.9,6.3,3
		h6.3c-13-8-28.2-12.6-44.6-12.6S197.9,255.7,184.9,263.7z"/>
</g>
<g>
	<path class="st0" d="M46.3,215c3.4,0,6.2-2.3,6.2-2.3s11.8-14.1-17.8-17.8C36.8,211.4,42,215,46.3,215z M47.5,201.5
		c2.1,1.1,3.4,2.3,3.9,3.6c0.9,2.2-0.6,4.6-1.2,5.4c-0.7,0.5-2.3,1.4-3.9,1.4c-3.5,0-6.3-4.8-7.9-13.2
		C42.2,199.4,45.2,200.3,47.5,201.5z"/>
	<path class="st0" d="M88.9,230.9c6.4,0,15.2-5.2,26.2-23.9c-9.1-2.6-16.1-3.7-21.5-3.7c-22.9,0-17.2,19-17.2,19
		S80.8,230.9,88.9,230.9z M80.9,211c2.2-3,6.5-4.5,12.8-4.5c4.6,0,10.2,0.8,16.6,2.5c-4.1,6.5-8.2,11.4-12,14.6
		c-3.4,2.8-6.5,4.2-9.4,4.2c-5.4,0-8.8-5.4-9.5-6.6c0-0.2-0.1-0.4-0.2-0.7c1.6-1.1,3.3-2.2,5.3-3.1l6.2,4.8c0.1,0.1,0.3,0.2,0.5,0.2
		c0.2,0,0.5-0.1,0.6-0.3c0.3-0.3,0.2-0.8-0.1-1.1l-5.6-4.3c5.4-2.4,12.1-4.1,19.9-5.1c0.4-0.1,0.7-0.5,0.7-0.9
		c-0.1-0.4-0.5-0.7-0.9-0.7c-3.9,0.5-7.5,1.2-10.9,2l1-2.7c0.1-0.4-0.1-0.8-0.6-1c-0.4-0.1-0.9,0.1-1,0.6l-1.3,3.6
		c-3.2,0.9-6.1,2-8.8,3.2c-0.1,0-0.2,0.1-0.2,0.1c-1.9,0.9-3.6,1.9-5.1,2.9C78.9,216.5,79.1,213.4,80.9,211z"/>
	<path class="st0" d="M54.2,216.7c7.4,7,10.5,16.3,11.7,24.2c-1.7-1.2-4.1-2-7.3-1.7c-0.9,0.1-1.5,0.9-1.4,1.7
		c0.1,0.9,0.9,1.5,1.7,1.4c5.1-0.6,7,2.9,7.5,4.4c0.1,1.9,0.1,3.6,0.1,5h3.2c0-1.3,0-2.7,0-4.3c0.1-0.2,0.1-0.5,0-0.8
		c0-0.1-0.1-0.2-0.1-0.4c-0.2-3.7-0.8-8-2.1-12.6c0.3-1.5,1.8-6.7,6.3-8.5c0.8-0.3,1.2-1.2,0.9-2.1c-0.3-0.8-1.2-1.2-2.1-0.9
		c-3.5,1.4-5.6,4.2-6.8,6.6c-2-5.1-5.1-10.2-9.7-14.6c-0.6-0.6-1.6-0.6-2.2,0.1C53.6,215.1,53.6,216.1,54.2,216.7z"/>
	<path class="st0" d="M55.5,240.5c0,0-1.8-6.8-7.9-6.8c-3.8,0-9.2,2.6-17,11c7.3,3.9,12.5,5.4,16.2,5.4
		C56.2,250,55.5,240.5,55.5,240.5z M47.6,236.8c3.1,0,4.4,3.2,4.7,4.2c0,0.8-0.1,3-1.4,4.4c-0.9,1-2.2,1.4-4.1,1.4
		c-2,0-5.5-0.6-10.9-3.1C42.1,237.8,45.8,236.8,47.6,236.8z"/>
	<path class="st0" d="M23.1,267.5h6.3c2.1-1.1,4.2-2.1,6.3-3c10.1-4.3,20.8-6.4,31.9-6.4s21.8,2.2,31.9,6.4c2.2,0.9,4.3,1.9,6.3,3
		h6.3c-13-8-28.2-12.6-44.6-12.6S36,259.6,23.1,267.5z"/>
</g>
<g>
	<path class="st0" d="M260,33.9h-61.8c-1.7,0-3,1.3-3,3s1.3,3,3,3h27.9v11.4h-36.5v-7.8c0-7.4-6-13.4-13.4-13.4h-52.5
		c-7.4,0-13.4,6-13.4,13.4v7.8H73.9V39.9h27.9c1.7,0,3-1.3,3-3s-1.3-3-3-3H40c-1.7,0-3,1.3-3,3s1.3,3,3,3h27.9v11.4h-8.6
		c-1.7,0-3,1.3-3,3s1.3,3,3,3h51v14L96.8,81.7v18.8c0,1.7,1.3,3,3,3s3-1.3,3-3V84.6l10.5-8.1h13.2l3.7,15.4h39l6.8-15.4h10.5
		l10.5,8.1v15.9c0,1.7,1.3,3,3,3s3-1.3,3-3V81.7l-13.5-10.4v-14h51c1.7,0,3-1.3,3-3s-1.3-3-3-3h-8.6V39.9H260c1.7,0,3-1.3,3-3
		S261.7,33.9,260,33.9z M165.4,86H135l-2.2-9h36.6L165.4,86z M183.7,70.5h-67.3V43.4c0-4.1,3.3-7.4,7.4-7.4h52.5
		c4.1,0,7.4,3.3,7.4,7.4V70.5z"/>
	<path class="st0" d="M150,117.1c13.3,0,17.9-9,18.1-9.4c0.7-1.5,0.1-3.2-1.3-4c-1.5-0.8-3.3-0.2-4,1.3c-0.1,0.2-3.3,6.1-12.8,6.1
		c-9.4,0-12.6-5.8-12.8-6.1c-0.7-1.5-2.5-2.1-4-1.3c-1.5,0.7-2.1,2.5-1.3,4C132.1,108.1,136.7,117.1,150,117.1z"/>
	<path class="st0" d="M180.5,119.5c-1.5-0.7-3.3-0.2-4,1.3c-0.3,0.5-6.9,12.9-26.5,12.9c-19.6,0-26.2-12.4-26.5-12.9
		c-0.7-1.5-2.5-2.1-4-1.3c-1.5,0.7-2.1,2.5-1.3,4c0.3,0.7,8.4,16.2,31.8,16.2s31.5-15.6,31.8-16.2
		C182.6,122.1,182,120.3,180.5,119.5z"/>
</g>
</svg>
