<?xml version="1.0" encoding="utf-8"?>
<!-- Generator: Adobe Illustrator 22.0.1, SVG Export Plug-In . SVG Version: 6.00 Build 0)  -->
<svg version="1.1" id="Layer_1" xmlns="http://www.w3.org/2000/svg" xmlns:xlink="http://www.w3.org/1999/xlink" x="0px" y="0px"
	 viewBox="0 0 300 300" style="enable-background:new 0 0 300 300;" xml:space="preserve">
<style type="text/css">
	.st0{fill:#8AC148;}
</style>
<g>
	<path class="st0" d="M146.1,109.4c-1.3-5.3-3.7-11.6-8.4-15.2c-3.7-2.9-8.1-3.8-13.2-2.7c-1.4,0.3-2.2,1.6-1.9,3
		c0.3,1.4,1.6,2.2,3,1.9c3.6-0.8,6.6-0.2,9.1,1.8c3.9,3,5.9,8.8,6.9,13.5c-3.9,2.7-6.5,7.2-6.5,12.4c0,5.4,2.9,10.1,7.2,12.8
		c-0.2,0.2-0.5,0.4-0.7,0.6c1,0.5,1.9,1.3,2.6,2.3c0.3,0.5,0.6,0.9,0.8,1.4c1.7-1.3,3.5-2.1,5.2-2.1s3.5,0.7,5.2,2.1
		c0.2-0.5,0.5-1,0.8-1.4c0.7-1,1.6-1.7,2.6-2.3c-0.2-0.2-0.5-0.4-0.7-0.6c4.3-2.6,7.2-7.4,7.2-12.8c0-5.1-2.6-9.6-6.5-12.4
		c1-4.7,3-10.4,6.9-13.5c2.5-1.9,5.5-2.5,9.1-1.8c1.4,0.3,2.7-0.6,3-1.9s-0.6-2.7-1.9-3c-5.1-1.1-9.5-0.1-13.2,2.7
		c-4.7,3.7-7.2,9.9-8.4,15.2c-1.2-0.3-2.5-0.5-3.9-0.5S147.4,109.1,146.1,109.4z M154.9,121.4C154.9,121.4,155,121.4,154.9,121.4
		c1.4,0,2.5-1.1,2.6-2.4c0,0,0-0.6,0.1-1.6c1.5,1.7,2.4,4,2.4,6.5c0,5.5-4.5,10-10,10s-10-4.5-10-10c0-2.5,0.9-4.7,2.4-6.5
		c0.1,0.9,0.1,1.5,0.1,1.6c0,1.3,1.2,2.4,2.5,2.4c0,0,0.1,0,0.1,0c1.4,0,2.5-1.2,2.4-2.6c0-0.2-0.1-2-0.4-4.5
		c0.9-0.3,1.9-0.4,2.9-0.4s2,0.2,2.9,0.4c-0.4,2.5-0.4,4.3-0.4,4.5C152.5,120.2,153.5,121.3,154.9,121.4z"/>
	<path class="st0" d="M164.2,138.8c-3.5,0-6,3.4-4.8,6.8c4,11.7,13,34,26.1,44.6c7.9,6.4,15.1,8.7,21.1,8.7c7.8,0,13.6-3.8,16.4-7.2
		c4.6-5.7,9.1-21.6-9.1-36.4c-13.1-10.6-36.7-14.9-49-16.5C164.7,138.8,164.4,138.8,164.2,138.8z M222,177.4
		c0.4,5.1-1.3,9.2-2.9,11.2c-2,2.5-6.5,5.4-12.5,5.4c-5.7,0-11.8-2.5-18-7.6c-12.5-10.1-21.3-33-24.5-42.4c0,0,0-0.1,0-0.1
		c0,0,0.1-0.1,0.1-0.1c0,0,0,0,0,0c9.8,1.2,34,5.2,46.5,15.4C217.5,164.8,221.4,171.1,222,177.4z"/>
	<path class="st0" d="M167.2,173.9h-34.5c-2.3,4-4.9,7.8-7.7,11.3c0,1.2-0.1,2.5-0.1,3.7c0,30.4,11.2,55,25,55s25-24.6,25-55
		c0-1.3,0-2.5-0.1-3.7C172.1,181.8,169.6,177.9,167.2,173.9z M163.1,225.8c-3.8,8.3-8.7,13.2-13.1,13.2s-9.4-4.9-13.1-13.2
		c-0.3-0.6-0.5-1.2-0.8-1.8h27.9C163.7,224.6,163.4,225.2,163.1,225.8z M165.7,219h-31.5c-1-3.1-1.8-6.5-2.5-10h36.5
		C167.6,212.5,166.7,215.8,165.7,219z M169,204H131c-0.4-3.2-0.7-6.6-0.9-10h39.8C169.8,197.4,169.5,200.7,169,204z M130,189
		c0-3.4,0.1-6.7,0.4-10h39.2c0.3,3.3,0.4,6.6,0.4,10H130z"/>
	<path class="st0" d="M135.8,138.8c-0.2,0-0.4,0-0.7,0c-12.3,1.6-35.9,5.8-49,16.5c-18.2,14.8-13.7,30.8-9.1,36.4
		c2.8,3.4,8.6,7.2,16.4,7.2c6,0,13.2-2.3,21.1-8.7c13.1-10.6,22-32.9,26.1-44.6C141.8,142.2,139.2,138.8,135.8,138.8z M135.9,144
		c-3.2,9.4-12,32.2-24.5,42.4c-6.2,5-12.2,7.6-18,7.6c-6,0-10.5-2.9-12.5-5.4c-1.6-2-3.4-6.1-2.9-11.2c0.5-6.4,4.4-12.6,11.3-18.2
		c12.5-10.1,36.6-14.1,46.5-15.4c0,0,0,0,0,0c0,0,0.1,0,0.1,0.1C135.9,143.9,135.9,144,135.9,144z"/>
	<path class="st0" d="M279.9,111l-128-81c-1.1-0.7-2.6-0.7-3.7,0l-128,81c-1.3,0.8-1.9,2.4-1.5,3.9c0.4,1.5,1.8,2.5,3.4,2.5h31.5
		V270c0,1.9,1.6,3.5,3.5,3.5h186c1.9,0,3.5-1.6,3.5-3.5V117.5H278c1.6,0,2.9-1,3.4-2.5C281.8,113.5,281.2,111.9,279.9,111z
		 M243,110.5c-1.9,0-3.5,1.6-3.5,3.5v152.5h-179V114c0-1.9-1.6-3.5-3.5-3.5H34l116-73.4l116,73.4H243z"/>
</g>
</svg>
