<?xml version="1.0" encoding="utf-8"?>
<!-- Generator: Adobe Illustrator 22.0.1, SVG Export Plug-In . SVG Version: 6.00 Build 0)  -->
<svg version="1.1" id="Layer_1" xmlns="http://www.w3.org/2000/svg" xmlns:xlink="http://www.w3.org/1999/xlink" x="0px" y="0px"
	 viewBox="0 0 300 300" style="enable-background:new 0 0 300 300;" xml:space="preserve">
<style type="text/css">
	.st0{fill:#8AC148;}
</style>
<g>
	<path class="st0" d="M94,106c2.2,0,4-1.8,4-4V78c0-2.2-1.8-4-4-4s-4,1.8-4,4v24C90,104.2,91.8,106,94,106z"/>
	<path class="st0" d="M68.5,109.9c1.1,1.9,3.6,2.6,5.5,1.5c1.9-1.1,2.6-3.6,1.5-5.5l-12-20.8c-1.1-1.9-3.6-2.6-5.5-1.5
		c-1.9,1.1-2.6,3.6-1.5,5.5L68.5,109.9z"/>
	<path class="st0" d="M33.1,115.5l20.8,12c1.9,1.1,4.4,0.4,5.5-1.5s0.4-4.4-1.5-5.5l-20.8-12c-1.9-1.1-4.4-0.4-5.5,1.5
		C30.5,111.9,31.2,114.4,33.1,115.5z"/>
	<path class="st0" d="M26,150h24c2.2,0,4-1.8,4-4c0-2.2-1.8-4-4-4H26c-2.2,0-4,1.8-4,4C22,148.2,23.8,150,26,150z"/>
	<path class="st0" d="M138,150h24c2.2,0,4-1.8,4-4c0-2.2-1.8-4-4-4h-24c-2.2,0-4,1.8-4,4C134,148.2,135.8,150,138,150z"/>
	<path class="st0" d="M156.4,110c-1.1-1.9-3.6-2.6-5.5-1.5l-20.8,12c-1.9,1.1-2.6,3.6-1.5,5.5s3.6,2.6,5.5,1.5l20.8-12
		C156.8,114.4,157.5,111.9,156.4,110z"/>
	<path class="st0" d="M114,111.4c1.9,1.1,4.4,0.4,5.5-1.5l12-20.8c1.1-1.9,0.4-4.4-1.5-5.5c-1.9-1.1-4.4-0.4-5.5,1.5l-12,20.8
		C111.4,107.8,112.1,110.3,114,111.4z"/>
	<path class="st0" d="M114.6,274h8.4c13.5-41.7,52.8-72,99-72c20.6,0,39.8,6,56,16.4V209c-16.5-9.5-35.6-15-56-15
		C171.3,194,128.4,227.7,114.6,274z"/>
	<path class="st0" d="M122.3,191.2c1.4-1.2,2.8-2.4,4.2-3.5c1.1-0.9,2.2-1.8,3.4-2.6c-15.1-4.6-31.2-7.1-47.9-7.1
		c-21.2,0-41.4,4-60,11.3v8.6c18.8-7.8,39.1-11.9,60-11.9C95.8,186,109.3,187.8,122.3,191.2z"/>
	<path class="st0" d="M108.8,204.6c2.1-2.3,4.2-4.6,6.5-6.8c-10.7-2.5-21.8-3.8-33.3-3.8c-21.4,0-41.7,4.5-60,12.7v8.8
		c18.5-8.8,38.9-13.4,60-13.4C91.1,202,100.1,202.9,108.8,204.6z"/>
	<path class="st0" d="M48.1,274c8.3-4.2,17.5-6.8,27.2-7.7c0.7-2.8,1.6-5.5,2.5-8.2c-16.8,0.8-32.2,6.6-45,15.9H48.1z"/>
	<path class="st0" d="M97.4,218.9c1.7-2.5,3.5-4.9,5.4-7.3c-6.8-1.1-13.8-1.7-20.9-1.7c-21.6,0-42,5.2-60,14.4v9
		C40.2,223.4,60.7,218,82,218C87.2,218,92.4,218.3,97.4,218.9z"/>
	<path class="st0" d="M82,242c-22.5,0-43.3,7.4-60,20v10.3c15.8-13.6,36.3-22,58.7-22.3c1.1-2.7,2.2-5.4,3.4-8
		C83.4,242,82.7,242,82,242z"/>
	<path class="st0" d="M88.1,234.2c1.4-2.6,2.9-5.2,4.4-7.7c-3.5-0.3-7-0.5-10.5-0.5c-22,0-42.5,6.1-60,16.7v9.5
		C39.6,240.3,60.3,234,82,234C84,234,86,234.1,88.1,234.2z"/>
	<path class="st0" d="M81.6,274h8.2c5.8-24.1,18.1-46.2,36.1-64.2c25.7-25.7,59.8-39.8,96.2-39.8c19.6,0,38.6,4.1,56,12v-8.7
		c-17.2-7.3-36.1-11.3-56-11.3C153.5,162,96.1,209.9,81.6,274z"/>
	<path class="st0" d="M98,274h8.3c5.4-19.8,15.9-37.9,30.9-52.9c22.7-22.7,52.8-35.1,84.9-35.1c19.8,0,38.9,4.8,56,13.8v-8.9
		c-16.9-8.2-35.9-12.9-56-12.9C162.4,178,112.2,218.8,98,274z"/>
	<path class="st0" d="M131.5,274h8.6c12.8-32.7,44.7-56,82-56c21.3,0,40.8,7.6,56,20.2V228c-15.8-11.3-35.1-18-56-18
		C180.2,210,144.6,236.7,131.5,274z"/>
	<path class="st0" d="M185.7,234.9c-2.6,1.3-5.1,2.8-7.5,4.4c11.6,8.6,20.4,20.7,24.8,34.8h8.3C207.1,258.4,198,244.7,185.7,234.9z"
		/>
	<path class="st0" d="M193.8,231.3c12.5,11.1,21.7,26,25.8,42.7h8.2c-3.9-17.6-12.9-33.3-25.3-45.5
		C199.6,229.2,196.6,230.2,193.8,231.3z"/>
	<path class="st0" d="M171.4,244.2c-2.1,1.8-4.2,3.6-6.2,5.6c9.2,5.7,16.5,14.2,20.7,24.2h8.6C190.2,261.7,182,251.3,171.4,244.2z"
		/>
	<path class="st0" d="M159.8,255.8c-1.7,2.1-3.3,4.3-4.8,6.5c5.2,2.8,9.6,6.8,12.8,11.7h9.3C173.3,266.4,167.2,260,159.8,255.8z"/>
	<path class="st0" d="M255.3,233.3c6.6,12.7,11.1,26.4,13.2,40.7h8.1c-1.7-11.9-4.9-23.2-9.3-33.9
		C263.4,237.4,259.4,235.2,255.3,233.3z"/>
	<path class="st0" d="M211.9,226.7c11.9,13.1,20.4,29.3,24.1,47.3h8.1c-3.4-18-11.2-34.4-22.2-48C218.5,226,215.2,226.2,211.9,226.7
		z"/>
	<path class="st0" d="M232.5,226.7c10.1,14.1,16.8,30.2,19.8,47.3h8.1c-2.6-16.3-8.4-31.5-16.8-45C240,228,236.3,227.2,232.5,226.7z
		"/>
	<path class="st0" d="M123.4,158.6c1.7-3.9,2.6-8.1,2.6-12.6c0-17.7-14.3-32-32-32s-32,14.3-32,32c0,3.1,0.4,6.1,1.3,8.9
		c2.7-0.3,5.5-0.5,8.2-0.6c-1-2.6-1.5-5.4-1.5-8.3c0-13.2,10.8-24,24-24s24,10.8,24,24c0,3.9-1,7.7-2.7,11
		C118,157.4,120.7,158,123.4,158.6z"/>
	<path class="st0" d="M138,179.3c2.8-1.9,5.7-3.7,8.6-5.3c-20.1-7.7-41.9-12-64.6-12c-21,0-41.2,3.6-60,10.3v8.5
		c18.9-7,39.2-10.7,60-10.7C101.4,170,120.2,173.2,138,179.3z"/>
	<path class="st0" d="M242,34c8.8,0,16,7.2,16,16c0,3.7-1.3,7.2-3.6,10.1c-1.1,1.4-1.2,3.3-0.2,4.7c0.8,1.1,2,1.8,3.3,1.8
		c0.4,0,0.8-0.1,1.1-0.2c1.1-0.3,2.3-0.5,3.4-0.5c6.6,0,12,5.4,12,12s-5.4,12-12,12h-16.3c-0.2,1.4-0.6,2.7-1,4H262
		c8.8,0,16-7.2,16-16c0-8.8-7.2-16-16-16c-1.6,0-3.1,0.2-4.5,0.7c2.8-3.4,4.5-7.9,4.5-12.7c0-11-9-20-20-20c-7.8,0-14.5,4.5-17.8,11
		c1,1.3,1.9,2.6,2.6,4.1C228.9,38.6,235,34,242,34z"/>
	<path class="st0" d="M174,102h48c8.8,0,16-7.2,16-16c0-8.8-7.2-16-16-16c-1.6,0-3.1,0.2-4.5,0.7c2.8-3.4,4.5-7.9,4.5-12.7
		c0-11-9-20-20-20c-10.2,0-18.6,7.6-19.8,17.4c-2.6-0.9-5.3-1.4-8.2-1.4c-13.3,0-24,10.7-24,24C150,91.3,160.7,102,174,102z M174,58
		c2.3,0,4.6,0.4,6.8,1.2c0.4,0.2,0.9,0.2,1.4,0.2c0.7,0,1.4-0.2,2.1-0.6c1-0.6,1.7-1.7,1.9-2.9C187.2,48,194,42,202,42
		c8.8,0,16,7.2,16,16c0,3.7-1.3,7.2-3.6,10.1c-1.1,1.4-1.2,3.3-0.2,4.7c0.8,1.1,2,1.8,3.3,1.8c0.4,0,0.8-0.1,1.1-0.2
		c1.1-0.3,2.3-0.5,3.4-0.5c6.6,0,12,5.4,12,12s-5.4,12-12,12h-48c-11,0-20-9-20-20C154,67,163,58,174,58z"/>
</g>
</svg>
