<?xml version="1.0" encoding="utf-8"?>
<!-- Generator: Adobe Illustrator 22.0.1, SVG Export Plug-In . SVG Version: 6.00 Build 0)  -->
<svg version="1.1" xmlns="http://www.w3.org/2000/svg" xmlns:xlink="http://www.w3.org/1999/xlink" x="0px" y="0px"
	 viewBox="0 0 832.3 445" style="enable-background:new 0 0 832.3 445;" xml:space="preserve">
<style type="text/css">
	.st0{fill:#8BC53F;}
	.st1{fill:#259B24;}
	.st2{fill:#4D535B;}
	.st3{fill:#FFFFFF;}
	.st4{fill:#231F20;}
	.st5{fill:#8AC148;}
	.st6{fill:#599014;}
</style>
<g id="Layer_1">
	<g>
		<path class="st5" d="M324.4,35.4c34.2,17.5,34.3,62.1,17.9,81.7c-25.5,32.4-72.3,24.4-93.9-7.4c-35.6-52.2-72.8-60.8-130.4-70.4
			C199.8-2.1,267.4,6.3,324.4,35.4z"/>
	</g>
	<g>
		<path class="st6" d="M331.2,33.1c-23.8-12.1-49.4-20.6-76-23.9c-29.7-3.7-59.8-0.9-88.6,7c-18.9,5.2-37.2,12.6-54.7,21.4
			c-4.3,2.2-1.5,1.4,1.6,1.9c24.3,4.1,50,11.1,72.3,22c23.5,11.4,43.2,30.2,58.2,51.2c15.1,21.3,39.1,31.4,64.8,27.7
			c23.7-3.4,45.2-19.1,50.7-43.1C365.2,72,354.6,45.3,331.2,33.1z M344.4,91.6c-2.2,19.8-16.5,39.9-36.9,43.4
			c-3.8,0.7-8.6,0.6-13.3-0.3c-5.4-1-10.5-2.9-15.4-5.4c-11.2-5.8-23.3-16.4-30.5-26.4c-14-19.6-33.9-35.5-55.7-46.1
			c-21.4-10.4-39.6-15.2-61.8-19.2c24.3-11.5,50.2-19.5,77-22.5c65.5-7.5,102.3,15.5,113.5,23.1C341,51.3,346.8,69.8,344.4,91.6z"/>
		<path class="st6" d="M298.7,142.7c-22.2,0-42.6-10.4-55.9-29.1c-16.2-22.8-36.1-40.4-57.6-50.8c-20.3-9.8-45.1-17.4-71.9-21.9
			c-0.7-0.1-1.5-0.2-2.1-0.2c-1.3-0.1-2.6-0.1-2.8-1.5c-0.3-1.4,1.1-2.1,3-3.1c18.6-9.4,37.1-16.6,55-21.5
			c30.2-8.2,60.2-10.6,89.1-7.1c25.5,3.1,51.3,11.2,76.5,24.1l0,0C355.1,43.9,367,71,360.9,97.7c-5.3,23.1-25.7,40.5-51.9,44.3
			C305.5,142.4,302.1,142.7,298.7,142.7z M114.1,38.1c26.9,4.5,51.9,12.2,72.3,22c21.9,10.6,42.2,28.5,58.7,51.7
			c14.8,20.9,37.9,30.8,63.4,27.1c25-3.6,44.4-20.1,49.4-42c5.8-25.4-5.5-51.1-27.4-62.6c-24.9-12.7-50.3-20.7-75.5-23.8
			c-28.6-3.5-58.2-1.2-88,7C149.9,22.3,132.1,29.2,114.1,38.1z M301.9,136.9c-2.6,0-5.3-0.2-8-0.7c-5.3-0.9-10.6-2.8-15.8-5.5
			c-11.3-5.9-23.8-16.7-31.1-26.9c-13.4-18.7-33-34.9-55.1-45.6c-21.6-10.5-40.2-15.2-61.4-19l-4.5-0.8l4.2-2
			c25.5-12.1,51.6-19.7,77.5-22.7c44.6-5.1,84.2,2.9,114.5,23.3c18.6,12.5,26.3,30.4,23.6,54.8l0,0c-2.1,19.3-15.9,40.8-38.2,44.7
			C305.9,136.7,304,136.9,301.9,136.9z M135.7,37c19.6,3.7,37.2,8.6,57.6,18.4c22.6,11,42.6,27.5,56.2,46.6c7.1,9.8,19.1,20.3,30,26
			c4.9,2.6,10,4.3,14.9,5.2c4.4,0.8,9.1,0.9,12.7,0.2c20.6-3.5,33.8-24.3,35.7-42.1c2.5-23.2-4.8-40.3-22.3-52
			c-29.7-20-68.7-27.9-112.5-22.8C183.9,19.4,159.5,26.2,135.7,37z"/>
	</g>
	<g>
		<g>
			<path class="st6" d="M166.6,242.2c-19.8,6.1-33.3,30.3-28.1,55c5.7,27.1,27,44.5,53.1,49.1c25.5,4.5,52.6-3.1,70.3-22.5
				c17.1-18.8,22.8-46,18.2-70.6c-4.6-24.6-20-46.7-41.3-59.9c-23.1-14.3-51.8-19.8-78.6-16.3c-24.4,3.1-47.8,14.3-65.3,31.6
				c-18.4,18.3-29.3,42.6-33,68.1c-7.3,50.1,14.4,100.9,54.8,131.1c42.1,31.5,100.8,39.3,150.9,25.6c48.4-13.2,89.3-47.7,110.5-93.1
				c24.7-52.8,24.8-115.9,2.5-169.5c-10.8-26-26.7-49.3-46.2-69.5c-18.4-19-38.9-36.4-62.8-47.9c-38.8-18.7-59-15-59-15
				s40.5,6.5,83.4,40.8c18.1,14.5,34.6,31.8,47.9,50.9c30.3,43.6,42.9,98.6,34.9,151.1c-3.9,25.6-12.3,51-26,73
				c-12.1,19.4-28.3,36.2-47,49.2c-36.4,25.2-83.1,35.4-126.4,25.4c-22.2-5.1-43-15.2-59.8-30.7c-16.7-15.4-29.2-34.8-36.3-56.4
				c-14.4-43.5-6-96.4,27.8-128.9c31.5-30.3,84.1-40.8,121-13.8c37,27.1,46.5,87.1,13.4,121.2c-15,15.4-38.3,24.1-59.5,18.2
				c-21.5-6-35.7-27.6-35.6-49.5c0.1-22.3,15.2-45.2,39.2-46.3C189.6,242.6,179.8,238.1,166.6,242.2z"/>
			<path class="st6" d="M218.8,441.5c-37.7,0-74.5-11.2-102.9-32.4c-20.1-15-36-35.3-45.8-58.7c-9.9-23.5-13.2-49.1-9.6-73.8
				c3.9-27,15.8-51.5,33.4-69c17.6-17.5,41.1-28.8,66.2-32c27.9-3.6,56.9,2.5,79.6,16.6c21.7,13.5,37.4,36.2,41.9,60.9
				c5,26.8-2,53.6-18.6,71.9c-17.2,18.9-44.7,27.6-71.7,22.9c-28.4-5-48.7-23.8-54.3-50.3c-5.2-24.7,7.8-50.2,29.1-56.8
				c13.6-4.2,23.6,0.3,24.1,0.5l5.5,2.5l-6.1,0.3c-23.5,1.1-37.7,23.6-37.8,44.8c-0.1,22.3,14.4,42.5,34.5,48.1
				c19.5,5.4,42.2-1.6,58.1-17.8c14.5-14.9,21.5-35.6,19.6-58.3c-2-24.4-14.3-47.1-32.8-60.6c-38.7-28.4-90.2-14.1-119.1,13.7
				c-31.6,30.4-42.6,81.6-27.4,127.4c7.1,21.3,19.5,40.6,35.9,55.7c15.8,14.6,36.3,25.1,59.1,30.3c41.7,9.6,88.5,0.2,125.2-25.2
				c18.6-12.9,34.8-29.7,46.6-48.7c12.8-20.4,21.7-45.5,25.8-72.5c8-52.2-4.7-106.8-34.6-150c-12.8-18.5-29.3-36-47.6-50.6
				c-42.1-33.6-82.3-40.4-82.7-40.5l-8.5-1.4l8.5-1.5c0.8-0.2,21.2-3.6,59.9,15.1c21.2,10.2,41.3,25.5,63.3,48.2
				c20.3,21,36,44.5,46.5,69.9C404.9,225,404,288.8,379.6,341c-21.3,45.5-62.9,80.7-111.5,93.9C252,439.3,235.3,441.5,218.8,441.5z
				 M175.9,177.5c-5.2,0-10.3,0.3-15.5,1c-24.4,3.1-47.3,14.2-64.5,31.2c-17.1,17-28.7,40.9-32.6,67.3
				c-7.1,48.8,14.2,99.7,54.3,129.7c40.1,29.9,97.4,39.7,149.6,25.4c47.7-13.1,88.7-47.6,109.6-92.3c24-51.4,24.9-114.3,2.5-168.3
				c-10.4-25.1-25.9-48.3-45.9-69C311.8,80,292,64.9,271.1,54.8c-20.3-9.8-35.5-13.4-45.3-14.6c15.5,4.7,43,15.3,71.1,37.8
				c18.5,14.8,35.2,32.5,48.2,51.2c30.4,43.8,43.2,99.2,35.1,152.1c-4.2,27.4-13.2,52.8-26.2,73.6c-12.1,19.3-28.5,36.5-47.4,49.6
				c-37.4,25.9-85,35.4-127.5,25.6c-23.4-5.4-44.3-16.1-60.5-31c-16.8-15.5-29.5-35.2-36.7-57c-15.5-46.9-4.2-99.3,28.2-130.5
				c16.1-15.5,37.1-25.7,59.3-28.8c23.5-3.3,46,2,63.6,14.9c19.2,14.1,31.9,37.5,34,62.8c2,23.5-5.3,45.1-20.4,60.6
				c-12.8,13.2-30.1,20.5-46.7,20.5c-4.8,0-9.6-0.6-14.3-1.9c-21.4-6-36.8-27.4-36.7-51c0.1-20.2,12.3-41.6,33-46.7
				c-3.9-0.5-9-0.4-14.9,1.4c-19.8,6.1-32,30.1-27.1,53.3c5.3,25.3,24.8,43.2,51.9,48c26,4.5,52.5-3.9,69-22
				c16-17.5,22.7-43.5,17.9-69.3c-4.4-23.8-19.6-45.9-40.6-58.9C220.2,183.5,198.2,177.5,175.9,177.5z"/>
		</g>
	</g>
	<g>
		<path class="st6" d="M409.8,97.9c-26.3-36.4-63.7-64-105.8-79.5c-43.9-16.2-92.8-18.7-138-6.3C123.5,23.7,85.1,48.4,56.9,82.3
			c-28.5,34.3-46,76.9-49.3,121.5c-3.4,45.5,7.6,91,31.5,129.9c23.2,37.8,58.2,68.1,98.6,86.4c43,19.4,91.5,25.6,137.9,16.7
			c43.4-8.3,83.9-30.3,114.5-62c30.8-31.8,51.4-72.8,58.2-116.6c1.7-11.2,2.5-22.5,2.5-33.8C450.7,179,436.3,134.6,409.8,97.9z
			 M396.7,342.5c-24.2,34.5-59,61.7-98.4,76.6c-40.7,15.3-85.7,17.8-127.7,6.1c-39.4-10.9-74.9-35.2-100.6-66.8
			c-27.2-33.4-43.6-74.6-46.9-117.5c-3.3-43.6,7.1-87.8,29.5-125.3c21.7-36.4,54.5-65.8,92.9-83.8c38.9-18.2,83.9-24,126.1-15.7
			c40.7,8,77.9,29.1,106.4,59.2c29.3,31.1,48.6,70.9,54.9,113.1c1.6,10.7,2.4,21.5,2.4,32.3C435.2,264.1,421.6,307,396.7,342.5z"/>
		<path class="st6" d="M233.6,442.2c-32.9,0-66.1-7-96.5-20.8c-41-18.5-76.2-49.4-99.3-86.9C14,295.7,2.7,249.2,6.1,203.7
			C9.4,159.4,27,116,55.8,81.3C84,47.4,123,22.3,165.6,10.6C210.5-1.7,259.9,0.6,304.5,17C347.2,32.7,385,61.2,411,97.1
			c26.5,36.7,41.2,81.9,41.3,127.2c0,11.9-0.9,23.3-2.5,34c-6.7,43.6-27.5,85.3-58.6,117.4c-30.8,31.9-71.8,54.1-115.3,62.5
			C262,440.8,247.8,442.2,233.6,442.2z M224.6,5.7c-19.7,0-39.4,2.6-58.2,7.7C124.3,25,85.9,49.8,58.1,83.2
			c-28.4,34.1-45.8,77-49,120.7c-3.3,45,7.8,90.8,31.3,129c22.8,37.1,57.6,67.5,98,85.8c42.9,19.4,91.6,25.3,137,16.6
			c42.9-8.2,83.3-30.1,113.8-61.6c30.6-31.7,51.1-72.9,57.8-115.8c1.6-10.6,2.5-21.9,2.5-33.6c-0.1-44.7-14.6-89.3-40.7-125.5
			c-25.6-35.4-62.9-63.5-105.1-79C278.1,10.4,251.3,5.7,224.6,5.7z M224.6,434c-18.4,0-36.8-2.4-54.4-7.3
			c-38.8-10.7-74.8-34.6-101.4-67.3C41.7,326,24.9,284,21.6,241c-3.3-43.7,7.2-88.5,29.7-126.2c21.7-36.4,54.9-66.3,93.5-84.4
			c39.7-18.5,84.7-24.1,127-15.8c40.3,8,78.4,29.1,107.2,59.7c29.3,31,48.9,71.5,55.3,113.9c1.6,10.5,2.4,21.4,2.4,32.5
			c-0.1,43.5-13.9,87-38.9,122.7c-24.4,34.8-59.6,62.2-99.1,77.1C275,429.4,249.7,434,224.6,434z M233,13.8
			c-29.7,0-59.6,6.5-86.9,19.3C108,50.9,75.3,80.5,53.9,116.3c-22.2,37.2-32.6,81.4-29.3,124.5c3.3,42.4,19.8,83.9,46.5,116.7
			c26.2,32.2,61.7,55.7,99.9,66.3c41.1,11.4,86.1,9.2,126.8-6.1c39-14.7,73.7-41.7,97.7-76l0,0c24.6-35.1,38.2-78.1,38.4-121
			c0-10.9-0.8-21.7-2.4-32.1c-6.3-41.9-25.7-81.8-54.6-112.3C348.5,46.2,311,25.4,271.3,17.5C258.7,15.1,245.9,13.8,233,13.8z"/>
	</g>
	<g>
		<g>
			<g>
				<path class="st6" d="M542.9,89.5c15.5,0,25.3,9.7,25.3,25c0,15.4-9.8,25.1-25.3,25.1h-12.1v18.8c0,1.2-0.6,1.8-1.7,1.8h-12.5
					c-1.1,0-1.7-0.6-1.7-1.8V91.3c0-1.2,0.6-1.8,1.7-1.8H542.9z M540.7,124.9c7.5,0,11.2-3.4,11.2-10.4c0-6.9-3.7-10.4-11.2-10.4
					h-9.9v20.8H540.7z"/>
			</g>
			<g>
				<path class="st6" d="M580.8,160.2c-1.2,0-1.8-0.6-1.8-1.8V91.3c0-1.2,0.6-1.8,1.8-1.8h12.5c1.1,0,1.7,0.6,1.7,1.8v54.2h27
					c1.1,0,1.7,0.6,1.7,1.7v11.3c0,1.2-0.6,1.8-1.7,1.8H580.8z"/>
			</g>
			<g>
				<path class="st6" d="M632.1,160.2c-1.3,0-1.8-0.8-1.4-2l22.9-67.3c0.4-0.9,1-1.4,1.9-1.4h15c0.9,0,1.6,0.5,1.9,1.4l22.9,67.3
					c0.5,1.2-0.1,2-1.4,2h-13.2c-1,0-1.8-0.5-2.1-1.5l-3.7-12.1h-24l-3.8,12.1c-0.3,1-1.1,1.5-2,1.5H632.1z M655.1,132.9H671
					c-2.8-8.7-5.8-19.5-7.8-26.1h-0.4C660.9,113.4,657.8,124.2,655.1,132.9z"/>
			</g>
			<g>
				<path class="st6" d="M707.2,160.2c-1.2,0-1.8-0.6-1.8-1.8V91.3c0-1.2,0.6-1.8,1.8-1.8h13.2c0.9,0,1.6,0.4,2,1.2l13.3,23.6
					c4.2,7.9,8.4,16.2,10.6,21.2l0.3-0.1c-0.7-8.9-1.1-18.2-1.1-26.4V91.3c0-1.2,0.6-1.8,1.8-1.8h12.3c1.1,0,1.7,0.6,1.7,1.8v67.1
					c0,1.2-0.6,1.8-1.7,1.8h-13.2c-0.9,0-1.6-0.4-2.1-1.2l-12.9-21.4c-4.4-7.3-9.1-17.4-11.5-23l-0.3,0.1c0.9,9,1.6,19.5,1.6,28.2
					v15.5c0,1.2-0.6,1.8-1.7,1.8H707.2z"/>
			</g>
			<g>
				<path class="st6" d="M825.1,89.5c1.1,0,1.7,0.6,1.7,1.8v11.3c0,1.1-0.6,1.7-1.7,1.7H807v54.2c0,1.2-0.6,1.8-1.7,1.8h-12.5
					c-1.1,0-1.7-0.6-1.7-1.8v-54.2h-18.1c-1.2,0-1.8-0.6-1.8-1.7V91.3c0-1.2,0.6-1.8,1.8-1.8H825.1z"/>
			</g>
			<g>
				<path class="st6" d="M516.8,255.8c-1.2,0-1.8-0.6-1.8-1.8v-67.1c0-1.2,0.6-1.8,1.8-1.8h14c0.9,0,1.6,0.4,2,1.3l8.9,17.2
					c3.1,5.9,7.2,15.5,8.9,19.5h0.4c1.6-4,5.8-13.5,8.8-19.5l9-17.2c0.4-0.9,1-1.3,2-1.3h14c1.1,0,1.7,0.6,1.7,1.8V254
					c0,1.2-0.6,1.8-1.7,1.8h-12.3c-1.1,0-1.8-0.6-1.8-1.8V241c0-9,0.4-21.3,1-31.6l-0.4-0.1c-1.9,4.5-5.8,13.3-9,19.9l-4.8,9.8
					c-0.5,1-1.1,1.3-2,1.3H546c-0.9,0-1.6-0.3-2-1.3l-4.9-9.8c-3.2-6.5-7.1-15.3-9-19.9l-0.4,0.1c0.6,10.4,1,22.6,1,31.6V254
					c0,1.2-0.6,1.8-1.8,1.8H516.8z"/>
			</g>
			<g>
				<path class="st6" d="M617.1,241.4h29.4c1.1,0,1.8,0.6,1.8,1.7V254c0,1.2-0.7,1.8-1.8,1.8h-43.5c-1.2,0-1.8-0.6-1.8-1.8v-67.1
					c0-1.2,0.6-1.8,1.8-1.8h41.9c1.2,0,1.8,0.6,1.8,1.8v10.9c0,1.1-0.6,1.7-1.8,1.7h-27.8V213h24.5c1.2,0,1.8,0.6,1.8,1.7v10.7
					c0,1.1-0.6,1.7-1.8,1.7h-24.5V241.4z"/>
			</g>
		</g>
		<g>
			<path class="st6" d="M569,280.7c1.1,0,1.7,0.6,1.7,1.8v11.3c0,1.1-0.6,1.7-1.7,1.7h-18.1v54.2c0,1.2-0.6,1.8-1.7,1.8h-12.5
				c-1.1,0-1.7-0.6-1.7-1.8v-54.2H517c-1.2,0-1.8-0.6-1.8-1.7v-11.3c0-1.2,0.6-1.8,1.8-1.8H569z"/>
		</g>
		<g>
			<path class="st6" d="M618.9,351.4c-0.9,0-1.6-0.4-2-1.2l-13.7-22.4h-6.3v21.9c0,1.2-0.6,1.8-1.8,1.8h-12.4
				c-1.2,0-1.8-0.6-1.8-1.8v-67.1c0-1.2,0.6-1.8,1.8-1.8h24c16.8,0,26.3,9.2,26.3,23.8c0,10.3-5.1,17.5-14.2,20.9l15.8,23.9
				c0.7,1.2,0.2,2.1-1.2,2.1H618.9z M596.9,295.3v18.6h9.4c7.3,0,10.5-2.9,10.5-9.3c0-6.3-3.2-9.3-10.5-9.3H596.9z"/>
		</g>
		<g>
			<path class="st6" d="M661.6,337H691c1.1,0,1.8,0.6,1.8,1.7v10.9c0,1.2-0.7,1.8-1.8,1.8h-43.5c-1.2,0-1.8-0.6-1.8-1.8v-67.1
				c0-1.2,0.6-1.8,1.8-1.8h41.9c1.2,0,1.8,0.6,1.8,1.8v10.9c0,1.1-0.6,1.7-1.8,1.7h-27.8v13.5h24.5c1.2,0,1.8,0.6,1.8,1.7v10.7
				c0,1.1-0.6,1.7-1.8,1.7h-24.5V337z"/>
		</g>
		<g>
			<path class="st6" d="M720.4,337h29.4c1.1,0,1.8,0.6,1.8,1.7v10.9c0,1.2-0.7,1.8-1.8,1.8h-43.5c-1.2,0-1.8-0.6-1.8-1.8v-67.1
				c0-1.2,0.6-1.8,1.8-1.8h41.9c1.2,0,1.8,0.6,1.8,1.8v10.9c0,1.1-0.6,1.7-1.8,1.7h-27.8v13.5h24.5c1.2,0,1.8,0.6,1.8,1.7v10.7
				c0,1.1-0.6,1.7-1.8,1.7h-24.5V337z"/>
		</g>
		<g>
			<path class="st6" d="M788.3,352.6c-10.1,0-17.6-3-26-9.7c-0.9-0.7-1-1.5-0.4-2.4l6.7-9.6c0.6-0.8,1.5-1,2.4-0.3
				c5.9,4.2,12,6.7,18.4,6.8c6.4,0,11-2.2,11-6.5c0-5-5.9-6.6-12.8-8c-10-2.1-24.8-7-24.8-23c0-13.7,11.8-20.5,26.8-20.5
				c8.7,0,15.7,2.2,23.9,7.6c1,0.6,1.2,1.5,0.5,2.4l-6.3,9.5c-0.6,0.9-1.5,1.1-2.5,0.5c-5.1-3.3-10.9-4.9-16.4-4.9
				c-7,0-9.8,2.4-9.8,5.9c0,4.4,4.2,5.5,12.6,7.5c13.7,3.4,25.1,7.9,25.1,22.5C816.6,344.3,805.6,352.6,788.3,352.6z"/>
		</g>
	</g>
</g>
<g id="Layer_2">
</g>
</svg>
