<?xml version="1.0" encoding="utf-8"?>
<!-- Generator: Adobe Illustrator 22.0.1, SVG Export Plug-In . SVG Version: 6.00 Build 0)  -->
<svg version="1.1" id="Layer_1" xmlns="http://www.w3.org/2000/svg" xmlns:xlink="http://www.w3.org/1999/xlink" x="0px" y="0px"
	 viewBox="0 0 300 300" style="enable-background:new 0 0 300 300;" xml:space="preserve">
<style type="text/css">
	.st0{fill:#8AC148;}
</style>
<g>
	<path class="st0" d="M155.2,122.8C155.2,122.8,155.2,122.8,155.2,122.8l6.6,6.6c0.8,0.8,1.8,1.2,2.8,1.2c1,0,2-0.4,2.8-1.2
		l16.8-16.8c7.8-7.8,15.4-21.7,19.4-35.2c4.8-16.7,3.4-30-4.1-37.5S178.7,31,162,35.8c-13.6,3.9-27.4,11.5-35.2,19.4L110,71.9
		c-1.6,1.6-1.6,4.1,0,5.7l23.1,23.1l-84,84c-1.6,1.6-1.6,4.1,0,5.7c0.8,0.8,1.8,1.2,2.8,1.2s2-0.4,2.8-1.2l84-84L155.2,122.8z
		 M118.5,74.7l13.9-13.9C139.3,54,152,47,164.2,43.5c13.6-3.9,24.3-3.2,29.6,2.1c5.2,5.2,6,16,2.1,29.6
		c-3.5,12.2-10.5,24.9-17.3,31.8l-13.9,13.9l-3.8-3.7l-16.5-16.5l20.1-20.1c1.6-1.6,1.6-4.1,0-5.7c-1.6-1.6-4.1-1.6-5.7,0l-20,20
		L118.5,74.7z"/>
	<path class="st0" d="M255.8,99.3c-1.6-1.6-4.1-1.6-5.7,0L149.4,200.1l-21.5-21.5c-1.6-1.6-4.1-1.6-5.7,0c-1.6,1.6-1.6,4.1,0,5.7
		l24.4,24.4c0,0,0,0,0,0s0,0,0,0L174,236c0.8,0.8,1.8,1.2,2.8,1.2s2-0.4,2.8-1.2c1.6-1.6,1.6-4.1,0-5.7L155,205.8L255.8,105
		C257.4,103.4,257.4,100.9,255.8,99.3z"/>
	<path class="st0" d="M121.7,190.7c-1.6-1.6-4.1-1.6-5.7,0l-33.5,33.5c-1.6,1.6-1.6,4.1,0,5.7c0.8,0.8,1.8,1.2,2.8,1.2
		s2-0.4,2.8-1.2l33.5-33.5C123.3,194.8,123.3,192.3,121.7,190.7z"/>
	<path class="st0" d="M134.4,206.5c-1.6-1.6-4.1-1.6-5.7,0L95.3,240c-1.6,1.6-1.6,4.1,0,5.7c0.8,0.8,1.8,1.2,2.8,1.2s2-0.4,2.8-1.2
		l33.5-33.5C136,210.6,136,208,134.4,206.5z"/>
	<path class="st0" d="M148.7,220.7c-1.6-1.6-4.1-1.6-5.7,0l-33.5,33.5c-1.6,1.6-1.6,4.1,0,5.7c0.8,0.8,1.8,1.2,2.8,1.2
		s2-0.4,2.8-1.2l33.5-33.5C150.2,224.8,150.2,222.3,148.7,220.7z"/>
	<path class="st0" d="M157.2,234.9l-33.5,33.5c-1.6,1.6-1.6,4.1,0,5.7c0.8,0.8,1.8,1.2,2.8,1.2s2-0.4,2.8-1.2l33.5-33.5
		c1.6-1.6,1.6-4.1,0-5.7C161.3,233.4,158.8,233.4,157.2,234.9z"/>
</g>
</svg>
