<?xml version="1.0" encoding="utf-8"?>
<!-- Generator: Adobe Illustrator 22.0.1, SVG Export Plug-In . SVG Version: 6.00 Build 0)  -->
<svg version="1.1" id="Layer_1" xmlns="http://www.w3.org/2000/svg" xmlns:xlink="http://www.w3.org/1999/xlink" x="0px" y="0px"
	 viewBox="0 0 300 300" style="enable-background:new 0 0 300 300;" xml:space="preserve">
<style type="text/css">
	.st0{fill:#8AC148;}
</style>
<g>
	<path class="st0" d="M102.4,165.3c7.1,0,12.9-4.9,12.9-4.9s24.7-29.3-37.2-37.2C82.5,157.6,93.5,165.3,102.4,165.3z M104.8,137
		c4.3,2.2,7.1,4.8,8.2,7.5c1.8,4.6-1.3,9.7-2.4,11.2c-1.5,1.1-4.9,3-8.2,3c-7.2,0-13.1-9.9-16.4-27.6
		C93.9,132.6,100.2,134.6,104.8,137z"/>
	<path class="st0" d="M191.3,198.3c13.3,0,31.7-10.9,54.7-49.7c-18.9-5.5-33.5-7.7-44.8-7.7c-47.7,0-35.8,39.6-35.8,39.6
		S174.3,198.3,191.3,198.3z M174.5,156.8c4.6-6.2,13.6-9.4,26.7-9.4c9.6,0,21.2,1.7,34.6,5.2c-8.6,13.5-17,23.7-25,30.4
		c-7,5.8-13.6,8.8-19.5,8.8c-11.3,0-18.4-11.2-19.8-13.7c-0.1-0.4-0.2-0.9-0.3-1.5c3.3-2.3,6.9-4.5,11-6.4l12.9,10.1
		c0.3,0.2,0.7,0.3,1,0.3c0.5,0,1-0.2,1.3-0.6c0.6-0.7,0.4-1.7-0.3-2.3l-11.6-9.1c11.2-4.9,25.1-8.5,41.6-10.7
		c0.9-0.1,1.5-0.9,1.4-1.8c-0.1-0.9-0.9-1.5-1.8-1.4c-8.2,1.1-15.7,2.5-22.7,4.3l2-5.7c0.2-0.9-0.3-1.8-1.2-2
		c-0.9-0.2-1.8,0.3-2,1.2l-2.6,7.5c-6.7,1.9-12.8,4.1-18.2,6.6c-0.2,0-0.4,0.1-0.5,0.2c-3.9,1.8-7.5,3.9-10.7,6.1
		C170.4,168.3,170.8,161.8,174.5,156.8z"/>
	<path class="st0" d="M118.9,168.7c15.3,14.6,21.8,34,24.4,50.4c-3.6-2.6-8.6-4.2-15.2-3.5c-1.8,0.2-3.1,1.8-2.9,3.6
		c0.2,1.8,1.8,3.1,3.6,2.9c10.7-1.3,14.5,6,15.7,9.2c0.2,4,0.3,7.5,0.2,10.5h6.6c0.1-2.6,0.1-5.6-0.1-9c0.1-0.5,0.2-1,0.1-1.6
		c-0.1-0.2-0.1-0.5-0.2-0.7c-0.5-7.7-1.6-16.8-4.3-26.2c0.7-3,3.8-14,13.2-17.8c1.7-0.7,2.5-2.6,1.8-4.3c-0.7-1.7-2.6-2.5-4.3-1.8
		c-7.3,2.9-11.6,8.7-14.1,13.9c-4.2-10.7-10.6-21.3-20.1-30.4c-1.3-1.3-3.4-1.2-4.6,0.1C117.5,165.4,117.6,167.5,118.9,168.7z"/>
	<path class="st0" d="M121.5,218.3c0,0-3.7-14.2-16.4-14.2c-7.9,0-19.3,5.4-35.4,22.9c15.3,8.2,26.1,11.2,33.7,11.2
		C123.2,238.2,121.5,218.3,121.5,218.3z M105.1,210.7c6.4,0,9.2,6.6,9.9,8.7c0,1.6-0.3,6.3-3,9.3c-1.8,2-4.7,3-8.6,3
		c-4.2,0-11.4-1.2-22.7-6.5C93.6,212.7,101.4,210.7,105.1,210.7z"/>
	<path class="st0" d="M54,274.7h13.2c4.3-2.3,8.7-4.4,13.2-6.3c21.1-8.9,43.4-13.4,66.5-13.4s45.4,4.5,66.5,13.4
		c4.5,1.9,8.9,4,13.2,6.3h13.2c-27-16.7-58.9-26.3-92.9-26.3S81,258.1,54,274.7z"/>
</g>
<path class="st0" d="M255,66.7l-20.4-33.1c-1.2-2-3.4-3.1-5.6-3.1c-1,0-2,0.2-2.9,0.7l-8.8,4.4c-3.7,1.8-7.7,2.8-11.8,2.8h-30h-3.3
	h-6.6h-3.3h-19.7c-4.3,0-8.6,1.1-12.4,3.1L52.5,83.2c-7.9,4.4-10.8,14.4-6.4,22.4c3,5.4,8.6,8.5,14.4,8.5c2.7,0,5.4-0.7,8-2.1
	l42.7-23c-0.2-0.4-0.3-0.8-0.4-1.3c-0.5-1.8-0.8-3.7-0.9-5.5l-44.5,24l0,0l0,0c-1.5,0.8-3.1,1.2-4.8,1.2c-0.2,0-0.4,0-0.6,0
	c-2.7-0.2-5.3-1.5-7-3.6c-2.1-2.6-2.7-5.9-1.8-8.9c0.7-2.5,2.4-4.6,4.7-5.9l77.8-41.7c2.9-1.5,6.1-2.3,9.3-2.3h19.7h3.3h6.6h3.3h30
	c5.1,0,10.1-1.2,14.7-3.5L229,37l20.4,33.2l-0.1,0.1c-4.6,4.2-13.2,11.9-27,17.9c-6.6,2.9-14,4.3-22.1,4.3c-7.6,0-13.1-1.4-13.1-1.4
	l-0.8-0.2h-0.8h-52.3c-4.4,0-8.5-2.8-9.8-7c-0.3-0.9-0.4-1.9-0.4-2.9c0-5.4,4.4-9.9,9.9-9.9h42.8c1.8,0,3.3-1.5,3.3-3.3
	c0-1.8-1.5-3.3-3.3-3.3h-42.3c-8.1,0-15.2,5.7-16.6,13.6c-0.5,2.7-0.3,5.2,0.4,7.5c2,6.8,8.3,11.8,15.8,11.8h52.6
	c0,0,6.1,1.6,14.8,1.6c7.1,0,16-1.1,24.7-4.9c14.9-6.5,24-14.8,28.9-19.1C256.2,73,256.7,69.5,255,66.7z"/>
</svg>
